<?xml version="1.0" encoding="UTF-8" standalone="no"?><!DOCTYPE svg PUBLIC "-//W3C//DTD SVG 1.1//EN" "http://www.w3.org/Graphics/SVG/1.1/DTD/svg11.dtd"><svg width="100%" height="100%" viewBox="0 0 512 512" version="1.1" xmlns="http://www.w3.org/2000/svg" xmlns:xlink="http://www.w3.org/1999/xlink" xml:space="preserve" style="fill-rule:evenodd;clip-rule:evenodd;stroke-linejoin:round;stroke-miterlimit:1.41421;"><rect id="Travel" x="0" y="0" width="512" height="512" style="fill:none;"/><path d="M406.482,151.457l-66.395,62.867l42.091,169.583l-25.117,25.117l-80.37,-131.067l-1.853,-1.852l-82.669,78.278c-0.467,0.473 -0.993,0.829 -1.47,1.273l-2.655,60.349l-92.044,-92.039l60.328,-2.649c0.446,-0.489 0.806,-1.009 1.279,-1.482l78.278,-82.673l-0.665,-0.673l-132.24,-81.537l25.117,-25.117l168.82,42.877l63.62,-67.198c12.694,-12.694 33.266,-12.689 45.949,0c12.686,12.688 12.686,33.256 -0.004,45.943Z" style="fill:#fff;fill-rule:nonzero;"/></svg>