<?xml version="1.0" encoding="UTF-8" standalone="no"?><!DOCTYPE svg PUBLIC "-//W3C//DTD SVG 1.1//EN" "http://www.w3.org/Graphics/SVG/1.1/DTD/svg11.dtd"><svg width="100%" height="100%" viewBox="0 0 512 512" version="1.1" xmlns="http://www.w3.org/2000/svg" xmlns:xlink="http://www.w3.org/1999/xlink" xml:space="preserve" style="fill-rule:evenodd;clip-rule:evenodd;stroke-linejoin:round;stroke-miterlimit:1.41421;"><rect id="Incidentals" x="0" y="0" width="512" height="512" style="fill:none;"/><g><g><path d="M272.167,348.071c49.767,0 90.259,-40.479 90.259,-90.246c0,-49.767 -40.491,-90.265 -90.259,-90.265c-49.764,0 -90.252,40.492 -90.252,90.265c0,49.767 40.481,90.246 90.252,90.246Z" style="fill:#fff;fill-rule:nonzero;"/><path d="M272.167,372.298c63.23,0 114.47,-51.255 114.47,-114.471c0,-63.233 -51.242,-114.477 -114.47,-114.477c-63.223,0 -114.471,51.244 -114.471,114.477c0,63.215 51.248,114.471 114.471,114.471Zm0,-211.409c53.444,0 96.938,43.494 96.938,96.938c0,53.445 -43.492,96.931 -96.938,96.931c-53.446,0 -96.932,-43.484 -96.932,-96.931c0,-53.444 43.486,-96.938 96.932,-96.938Z" style="fill:#fff;fill-rule:nonzero;"/><path d="M450.25,382.947l-6.679,-256.928c0,-5.532 -4.487,-10.019 -10.019,-10.019c-1.479,0 -2.869,0.339 -4.128,0.922l0,-0.095c0,0 -0.261,0.167 -0.633,0.422c-0.959,0.529 -1.819,1.18 -2.563,1.976c-7.332,6.018 -30.708,30.545 -32.665,63.7c-2.969,50.572 21.596,71.053 29.964,89.812l-6.678,110.205c0,5.531 11.166,10.019 16.697,10.019c5.538,0.005 16.704,-4.482 16.704,-10.014Z" style="fill:#fff;fill-rule:nonzero;"/><path d="M79.236,226.426l17.291,8.637c1.97,0.988 4.142,1.708 6.412,2.244l-6.679,150.293c0,4.643 11.169,8.4 16.698,8.4c5.531,0 16.698,-3.757 16.698,-8.4l-6.679,-151.062c2.351,-0.74 4.617,-1.643 6.601,-2.857l12.81,-7.801c9.243,-5.638 16.208,-18.04 16.208,-28.868l0,-67.34c0,-5.532 -4.488,-10.019 -10.019,-10.019c-5.528,0 -10.018,4.487 -10.018,10.019l0,60.659l-5.565,0l0,-60.659c0,-5.532 -4.488,-10.019 -10.019,-10.019c-5.528,0 -10.019,4.487 -10.019,10.019l0,60.659l-5.583,0l0,-60.659c0,-5.532 -4.488,-10.019 -10.019,-10.019c-5.528,0 -10.019,4.487 -10.019,10.019l0,60.659l-5.548,0l0,-58.495c0,-5.531 -4.488,-10.019 -10.019,-10.019c-5.528,0 -10.018,4.488 -10.018,10.019l0,66.295c0,11.142 7.52,23.313 17.486,28.295Z" style="fill:#fff;fill-rule:nonzero;"/></g></g></svg>