<?xml version="1.0" encoding="UTF-8" standalone="no"?><!DOCTYPE svg PUBLIC "-//W3C//DTD SVG 1.1//EN" "http://www.w3.org/Graphics/SVG/1.1/DTD/svg11.dtd"><svg width="100%" height="100%" viewBox="0 0 512 512" version="1.1" xmlns="http://www.w3.org/2000/svg" xmlns:xlink="http://www.w3.org/1999/xlink" xml:space="preserve" style="fill-rule:evenodd;clip-rule:evenodd;stroke-linejoin:round;stroke-miterlimit:1.41421;"><rect id="Ticket" x="0" y="0" width="512" height="512" style="fill:none;"/><path d="M494.933,255.467c-10.667,1.067 -21.333,-5.333 -25.6,-16c-4.267,-10.667 -1.067,-22.4 6.4,-29.867l-5.333,-11.733c-10.667,1.067 -21.333,-5.333 -25.6,-16c-4.267,-10.667 -1.067,-22.4 6.4,-29.867l-5.333,-11.733c-10.667,1.067 -21.333,-5.333 -25.6,-16c-4.267,-10.667 -1.067,-22.4 6.4,-29.867l-4.267,-9.6c-13.867,6.4 -30.933,0 -36.267,-14.933l-371.2,160c6.4,13.867 0,30.933 -14.933,36.267l4.267,9.6c10.667,-1.067 21.333,5.333 25.6,16c4.267,10.667 1.067,22.4 -6.4,29.867l5.333,11.733c10.667,-1.067 21.333,5.333 25.6,16c4.267,10.667 1.067,22.4 -6.4,29.867l5.333,11.733c10.667,-1.067 21.333,5.333 25.6,16c4.267,10.667 1.067,22.4 -6.4,29.867l4.267,9.6c13.867,-6.4 30.933,0 36.267,14.933l371.2,-158.933c-6.4,-13.867 0,-30.933 14.933,-36.267l-4.267,-10.667Z" style="fill:#fff;fill-rule:nonzero;"/><path d="M430.933,271.467l-302.933,129.066l-59.733,-140.8l302.933,-130.133l59.733,141.867Zm-295.466,110.933l277.333,-119.467l-49.067,-114.133l-277.333,119.467l49.067,114.133Z" style="fill:#0696d7;fill-rule:nonzero;"/><g><path d="M125.867,299.2l14.933,-7.467l18.133,42.667l9.6,-3.2l-18.133,-42.667l14.933,-7.466l-3.2,-8.534l-40.533,17.067l4.267,9.6Z" style="fill:#0696d7;fill-rule:nonzero;"/><path d="M175.261,266.749l-9.802,4.204l22.285,51.953l9.802,-4.204l-22.285,-51.953Z" style="fill:#0696d7;"/><path d="M235.733,285.333c-1.067,5.333 -4.267,9.6 -9.6,11.733c-9.6,4.267 -20.267,0 -24.533,-10.667c-4.267,-10.667 -1.067,-20.267 9.6,-24.533c4.267,-2.133 10.667,-1.067 14.933,1.067l1.067,1.067l6.4,-8.533l-2.133,-1.067c-7.467,-4.267 -16,-5.333 -24.533,-2.133c-14.933,6.4 -21.333,22.4 -14.933,38.4c6.399,14.933 22.399,21.333 38.399,14.933c8.533,-3.2 12.8,-9.6 14.933,-19.2l0,-2.133l-10.667,-1.067l1.067,2.133Z" style="fill:#0696d7;fill-rule:nonzero;"/><path d="M272,225.6l-11.733,4.267l-9.6,29.866l-9.6,-21.333l-8.534,4.267l21.334,51.2l9.6,-4.267l-7.467,-17.067l2.133,-4.266l25.6,12.8l12.8,-5.334l-35.2,-17.066l10.667,-33.067Z" style="fill:#0696d7;fill-rule:nonzero;"/><path d="M298.667,274.667l35.2,-14.934l-4.267,-8.533l-25.6,10.667l-5.333,-12.8l24.533,-10.667l-3.2,-8.533l-25.6,10.666l-4.267,-12.8l25.6,-10.666l-4.266,-8.534l-35.2,14.934l22.4,51.2Z" style="fill:#0696d7;fill-rule:nonzero;"/><path d="M314.667,206.4l4.266,9.6l14.934,-6.4l18.133,42.667l9.6,-4.267l-18.133,-42.667l16,-6.4l-4.267,-9.6l-40.533,17.067Z" style="fill:#0696d7;fill-rule:nonzero;"/></g></svg>