<?xml version="1.0" encoding="UTF-8" standalone="no"?><!DOCTYPE svg PUBLIC "-//W3C//DTD SVG 1.1//EN" "http://www.w3.org/Graphics/SVG/1.1/DTD/svg11.dtd"><svg width="100%" height="100%" viewBox="0 0 512 512" version="1.1" xmlns="http://www.w3.org/2000/svg" xmlns:xlink="http://www.w3.org/1999/xlink" xml:space="preserve" style="fill-rule:evenodd;clip-rule:evenodd;stroke-linejoin:round;stroke-miterlimit:1.41421;"><rect id="Accomodation" x="0" y="0" width="512" height="512" style="fill:none;"/><g><g><path d="M400.223,308.179l0,57.821l27.503,0l0,-86.731l-315.949,0l0,-118.461c0,-3.763 -1.341,-7.171 -4.025,-10.225c-2.683,-3.055 -5.925,-4.583 -9.726,-4.583c-3.802,0 -7.044,1.528 -9.727,4.583c-2.683,3.056 -4.025,6.464 -4.025,10.225l0,205.192l27.503,0l0,-57.821l288.446,0Z" style="fill:#fff;fill-rule:nonzero;"/><path d="M155.044,220.038c6.931,0 12.969,-2.585 18.112,-7.756c5.143,-5.171 7.714,-11.4 7.714,-18.686c0,-7.287 -2.571,-13.516 -7.714,-18.686c-5.143,-5.17 -11.181,-7.756 -18.112,-7.756c-6.931,0 -12.857,2.586 -17.776,7.756c-4.919,5.171 -7.379,11.4 -7.379,18.686c0,7.286 2.46,13.515 7.379,18.686c4.919,5.171 10.845,7.756 17.776,7.756Z" style="fill:#fff;fill-rule:nonzero;"/><path d="M427.726,257.41l0,-35.256c0,-5.641 -1.901,-10.225 -5.702,-13.75c-3.803,-3.526 -8.611,-5.759 -14.422,-6.699l-199.229,-20.449l-1.342,0c-3.577,0 -6.596,1.293 -9.056,3.879c-2.459,2.585 -3.689,5.758 -3.689,9.519l0,40.897l-50.981,0c-8.497,0 -12.745,3.644 -12.745,10.93c0,7.286 4.248,10.929 12.745,10.929l284.421,0Z" style="fill:#fff;fill-rule:nonzero;"/></g></g></svg>